<svg width="1200" height="320" viewBox="0 0 1200 320" xmlns="http://www.w3.org/2000/svg">
  <defs>
    <linearGradient id="bg" x1="0" y1="0" x2="1200" y2="320" gradientUnits="userSpaceOnUse">
      <stop offset="0%" stop-color="#000000"/>
      <stop offset="50%" stop-color="#111111"/>
      <stop offset="100%" stop-color="#000000"/>
    </linearGradient>
    <radialGradient id="glow" cx="50%" cy="45%" r="55%">
      <stop offset="0%" stop-color="#3a2f00" stop-opacity="0.55"/>
      <stop offset="100%" stop-color="#000000" stop-opacity="0"/>
    </radialGradient>
  </defs>

  <rect width="1200" height="320" fill="url(#bg)"/>
  <rect width="1200" height="320" fill="url(#glow)"/>

  <!-- Big watermark bat, hand-drawn (no external assets) -->
  <g transform="translate(600,140) scale(4.2)" fill="#FFD700" opacity="0.22">
    <ellipse cx="0" cy="0" rx="10" ry="16"/>
    <path d="M -8,-14 L -14,-28 L -2,-18 Z"/>
    <path d="M 8,-14 L 14,-28 L 2,-18 Z"/>
    <path d="M -8,-6
             C -30,-30 -60,-34 -95,-20
             C -80,-14 -85,-6 -100,-2
             C -82,2 -84,10 -98,16
             C -78,14 -76,20 -86,30
             C -60,20 -40,14 -14,10
             Z"/>
    <path d="M 8,-6
             C 30,-30 60,-34 95,-20
             C 80,-14 85,-6 100,-2
             C 82,2 84,10 98,16
             C 78,14 76,20 86,30
             C 60,20 40,14 14,10
             Z"/>
  </g>

  <!-- Top and bottom gold hairlines -->
  <rect x="0" y="0" width="1200" height="3" fill="#FFD700" opacity="0.7"/>
  <rect x="0" y="317" width="1200" height="3" fill="#FFD700" opacity="0.7"/>

  <!-- Name -->
  <text x="600" y="160" text-anchor="middle"
        font-family="Georgia, 'Times New Roman', serif" font-weight="bold"
        font-size="72" letter-spacing="10"
        fill="#FFD700" stroke="#000000" stroke-width="2" paint-order="stroke">
    JAY ESMALLA
  </text>

  <!-- Subtitle -->
  <text x="600" y="205" text-anchor="middle"
        font-family="Arial, Helvetica, sans-serif" font-weight="bold"
        font-size="20" letter-spacing="9"
        fill="#C9A227">
    STUDENT DEVELOPER
  </text>
</svg>
